<svg version="1" xmlns="http://www.w3.org/2000/svg" width="682.667" height="682.667" viewBox="0 0 512.000000 512.000000"><path d="M220.6 39c1.4 15.9 8.4 105.6 8.4 107.8 0 2.4.1 2.5 6.2 1.8 3.5-.4 6.5-.9 6.7-1.1.4-.5-19.8-107.6-21-111.5-.5-1.6-.7-.6-.3 3zM293.7 90.8c-8.1 29.5-15 54.6-15.3 55.8-.5 1.8.1 2.1 5.7 3.2 3.5.6 6.4 1 6.5.9.4-.4 18.5-113 18.2-113.3-.2-.2-7 23.9-15.1 53.4zM153.6 100c9.7 21.2 20.3 44.6 23.7 52 3.3 7.4 6.3 13.8 6.6 14.2.4.4 3-.6 5.9-2.3 3.7-2.1 5.2-3.5 4.8-4.5-.8-2-55.1-93.4-57-95.9-.9-1.1 6.4 15.3 16 36.5zM357.5 116.5c-18.2 25.6-33.1 46.9-33.2 47.3-.2.4 2.2 2.1 5.2 3.9 5.4 3.1 5.5 3.2 6.6 1.2.6-1.2 12.4-22.4 26.3-47.3 26-46.3 28.9-51.6 28.4-51.6-.2 0-15.2 20.9-33.3 46.5zM68 117.6c0 .4 13.6 14.5 30.3 31.3 16.7 16.8 34.5 35 39.7 40.4l9.5 9.9 4.3-4.8c2.3-2.7 4.2-5.1 4.1-5.4 0-.3-14.7-12.4-32.6-27-17.9-14.6-37.6-30.7-43.9-35.8-6.3-5.1-11.4-9-11.4-8.6zM409.9 161.1c-25.5 17.6-46.8 32.4-47.3 32.9s.8 3 3.1 5.8l3.9 5 40-34.5c21.9-19 41.7-36.1 43.8-37.9 2.2-1.9 3.7-3.4 3.5-3.4-.3 0-21.4 14.4-47 32.1zM244.5 164.1c-11.5 1-25.9 4.8-37.2 9.7-9 3.9-23.6 12.7-26.7 16.1-1.6 1.7-1.5 1.8 2.6 2.4 7.7 1.1 22.1 5.7 31.5 10.2 41.4 19.6 70.1 57.1 77.8 101.9.8 4.9 1.5 10.7 1.5 13 0 2.2.3 5.7.6 7.7l.6 3.5 15.1 1.8c13.1 1.6 50.7 8.5 55.1 10.2 1.9.7 4.5-4.3 8.4-16.6 4.3-13.6 5.6-22.6 5.5-38-.1-27.1-8.4-52-24.7-73.6-6.5-8.7-21.3-22.6-30.3-28.4-23.8-15.6-51.6-22.5-79.8-19.9zM20.5 191.8C21.7 192.9 122.9 241 124 241c.8 0 5.3-11.1 4.7-11.6-.2-.2-22.4-8.1-49.3-17.5s-51.4-18-54.4-19c-3-1.1-5-1.5-4.5-1.1z"/><path d="M161.5 208.2c-12.2 14.3-22.3 35.5-25.9 54.8-2.4 12.5-3.2 11.4 9.4 13.3 30.9 4.6 57.9 19.5 79.2 43.5l6.6 7.6h24.6l24.6.1v-6.1c0-3.4-.7-10-1.5-14.7-9-51.9-49.7-92.4-101.4-101.1-5.2-.9-10-1.6-10.7-1.6-.7 0-2.9 1.9-4.9 4.2zM442.3 221.4c-29.9 7.9-54.6 14.5-54.9 14.8-.8.8 2.8 11.8 3.8 11.8 1.1 0 103.7-38.9 105.8-40.1.8-.5 1.1-.8.5-.8-.5.1-25.4 6.5-55.2 14.3zM66.5 277.1c-56 .8-65.3 1.1-63.5 1.5 2.3.5 107.2 10.4 110.8 10.4h3.2v-13l-4.2.2c-2.4.1-23.2.5-46.3.9zM396 290.5v6.5l38.8-.5c21.3-.3 47-.9 57.2-1.2l18.5-.7-12.5-1.2c-26.7-2.7-98.4-9.4-100.1-9.4-1.7 0-1.9.8-1.9 6.5zM133 290.8c0 4.6 2.3 19.5 4.1 26.7 2.2 8.6 7.8 23.5 8.8 23.5.3 0 6.9-1.4 14.5-3.1 15.2-3.3 43.2-7.9 48.3-7.9 1.7 0 3.5-.4 3.8-1 1-1.6-12.4-13.7-22.5-20.5-14.6-9.8-30.4-15.9-47.7-18.4-9.3-1.4-9.3-1.4-9.3.7zM67.8 345.3c-29 11.1-52.6 20.3-52.4 20.5.5.4 108.9-27.9 109.8-28.7 1-.9-2.5-12.1-3.7-12-.5 0-24.7 9.1-53.7 20.2zM386.2 337.7c-1.2 3.1-1.9 5.9-1.7 6.2.7.6 107.9 38 108.2 37.7.3-.3-103-49.6-103.9-49.6-.3 0-1.5 2.6-2.6 5.7zM226.5 335.6c-45.1 3.1-96.5 15.5-139 33.5-21.3 9-57.5 27.9-57.5 30 0 .4 1.2 1 2.6 1.3 2 .5 4.4-.4 10.2-3.7 49.6-28.6 105.1-46.7 166.7-54.4 19.9-2.5 74.1-2.5 94 0 61.8 7.7 116.9 25.7 166.7 54.4 5.8 3.3 8.2 4.2 10.2 3.7 1.4-.3 2.6-.9 2.6-1.3 0-1.5-25.7-15.6-43.2-23.7-41.8-19.3-83-31.1-130.8-37.5-12-1.5-22.4-2.1-46-2.3-16.8-.2-33.2-.2-36.5 0z"/><path d="M233.5 342.6c-2.2.2-9.8.9-17 1.5-55.5 4.6-116.4 23.4-167.2 51.7-9.4 5.2-12 7.2-9.3 7.2.6 0 8.1 2.8 16.6 6.1l15.6 6.1-.6 4.2c-.3 2.2-1.5 10.1-2.6 17.5s-1.8 13.7-1.6 13.9c.3.2 3.5-1.4 7.3-3.6 31.8-18.5 72.7-33.5 112.3-41.1 44.1-8.5 94.9-8.5 139 0 39.6 7.6 80.5 22.6 112.3 41.1 3.8 2.2 7 3.8 7.3 3.6.2-.2-.5-6.5-1.6-13.9s-2.3-15.3-2.6-17.5l-.6-4.2 15.6-6.1c8.5-3.3 16-6.1 16.6-6.1 2.7 0 .1-2-9.2-7.2-49.6-27.5-104.9-45-162.4-51.4-13.1-1.4-59.2-2.7-67.9-1.8zm12.5 15.6c0 .2 1.4 7.2 3 15.7 1.7 8.5 3 15.8 3 16.3 0 .4-1.1.8-2.4.8-2 0-2.4-.6-3-4.1-.6-3.7-.9-4-3.4-3.7-2.2.2-2.9 1-3.6 4-.7 2.9-1.4 3.8-3.1 3.8h-2.2l1.9-14.3c2.5-19.6 2.2-18.7 6.3-18.7 1.9 0 3.5.1 3.5.2zm20.5 11.2c2.9 9.8 3.3 10.6 3.8 7.6.4-1.8.7-6.8.7-11.1 0-7.9 0-7.9 2.6-7.9h2.7l-.7 9.2c-.3 5-.6 12.4-.6 16.5v7.3h-2.7c-2.7 0-3-.5-6.3-10.8l-3.5-10.7-.3 10.7c-.3 10.7-.3 10.8-2.7 10.8H257v-33.1l3.2.3c3.1.3 3.2.5 6.3 11.2zm27.3-8.8c4 2.8 4.4 4.6 3.2 16.2-1.4 13.3-2.9 15.2-11.6 15.2h-5.6l.7-14.3c.8-19.6.6-18.7 6.3-18.7 2.7 0 5.7.7 7 1.6zM219.7 374c.6 7.4 1.2 13.7 1.2 13.9.1.2 2.1.1 4.6-.1 4.2-.5 4.5-.4 4.5 1.8s-.4 2.4-5 2.6c-2.7.1-5.8.2-6.7.2-1.6.1-2-1.5-3-11.9-.6-6.6-1.2-13.9-1.2-16.3-.1-3.9.1-4.3 2.2-4 2.1.3 2.3 1 3.4 13.8zm-14.4-11.1c.6 2.3-1 3.1-5.9 3.1-3.3 0-3.4.1-3.4 3.7 0 5.2 1.2 6.6 4.8 6.1 2.5-.4 3.1-.1 3.5 1.8.3 1.9-.1 2.3-2.7 2.6-3 .3-3.1.5-3.1 4.8v4.5h5c4.3 0 5 .3 5.3 2.1.3 2-.3 2.2-6.3 2.9-3.7.4-6.9.4-7.2.1-.8-.7-5.4-30.9-4.9-31.4.5-.4 9.2-1.9 12.2-2.1 1.4-.1 2.4.6 2.7 1.8zm112.2.6c3.2 3.1 3.2 5.5.1 5.5-1.6 0-2.6-.7-2.9-2.1-.7-2.7-4.7-2.2-5.8.7-.8 2.3-.1 3.9 4.9 10.4 4 5.4 4.8 8.2 3.2 11.9-3 7.4-13.5 5.9-15.5-2.2-.6-2.4-.5-2.7 1.9-2.7 1.9 0 2.6.5 2.6 1.9 0 2.9 2.5 4.5 4.9 3.1 3.2-1.7 2.5-5.3-2.3-11.1-2.4-3-4.6-6.5-4.9-7.8-.7-2.8.8-7.1 3-8.9 2.8-2.1 8.1-1.5 10.8 1.3zm22.3 3.8c3 2.8 2.8 9.2-.3 9.2-1.5 0-2.1-.8-2.5-3.5-.4-2.9-1-3.6-3.2-3.8-3-.4-3.6 1.1-5.8 14.5-1.3 8.1-1 9.3 2.6 9.3 1.9 0 2.6-.6 3.1-3 .4-2.3 1.1-3 2.9-3 2.7 0 3.2 2.3 1.3 6.3-2.1 4.7-8 6-12.3 2.6-2.1-1.6-2.6-2.9-2.6-6.2.1-6.6 2.6-20.5 4.1-22.3 3.2-3.9 8.6-3.9 12.7-.1zm-157.8-.5c2.8 2.3 4.3 9.5 2.8 13.7-.9 2.6-.7 3.9 1.6 8.4 2.8 5.5 2.8 8.1.1 8.1-1 0-2.6-2.3-4.2-5.8-1.4-3.1-2.7-5.8-2.8-6-.1-.1-1 .1-2 .4-1.6.7-1.7 3.6-.2 11.8.1.6-.7 1.2-1.9 1.4-1.9.3-2.3-.9-5.3-15.3-1.8-8.6-3-15.9-2.7-16.2.7-.8 6.6-2.1 9.7-2.2 1.5-.1 3.7.7 4.9 1.7zM164.6 384c1.8 8.5 3 15.8 2.8 16.2-.3.5-1.3.8-2.2.8-1.4 0-2.4-3.1-5.3-16-3.1-13.9-3.4-16-2-16.3.9-.3 2-.4 2.5-.3.6.1 2.4 7.2 4.2 15.6zm194.3-14.1c1.1.7 1.2 3.5.7 15.2-.8 16.7-1.1 17.9-3.7 17.9-1.6 0-1.9-.7-1.9-4.4 0-4.1-.2-4.4-3-4.8-2.6-.4-3.1-.1-4.1 2.9-.8 2.5-1.6 3.3-3.5 3.3-1.3 0-2.4-.4-2.4-.9s2.5-6.9 5.6-14.2c3.1-7.4 5.8-14 6.1-14.7.6-1.4 4.1-1.6 6.2-.3zm-207.2 16.7c3.5 7.6 6.3 14.5 6.3 15.1 0 2.6-4 1.3-5.5-1.7-2.7-5.2-8.2-3.5-7.1 2.3.6 3 .4 3.5-1.6 4-1.2.4-2.3.5-2.4.4-.7-.7-3.2-32.3-2.6-32.8.9-.9 4.4-1.7 5.7-1.5.6.2 3.8 6.5 7.2 14.2zm226.8-11.8c6.7 2.3 8.4 5.3 6.7 11.9-1.7 6.4-4.4 8.6-10 8l-4.3-.5-1.6 6c-1.2 4.2-2 5.7-3.1 5.3-.7-.3-1.7-.5-2.2-.5-.4 0 1.1-7.2 3.4-16 2.2-8.8 4.6-16 5.1-15.9.6 0 3.2.8 6 1.7zm18.5 6.5c0 .6-2.1 7.8-4.7 15.9-4.3 13.6-4.8 14.8-6.7 14.2-1.2-.4-2.2-.7-2.3-.8-.1-.1 2-7.2 4.7-15.8 4.5-14 5.2-15.6 7-15.1 1.1.3 2 1 2 1.6zm-274.5 10.9c2 6.8 4.1 12.7 4.6 13.2.5.6 2.3.5 4.6-.2 3.7-1.1 5.8-.2 5 2.2-.5 1.5-11.8 5-12.7 4-1.4-1.6-10.2-29.3-9.5-30.4.3-.5 1.4-1 2.4-1 1.4 0 2.6 2.6 5.6 12.2zm284.4-8.3c1.6.9 1.7 2.2 1.3 12-.3 6.1-.2 11.1 0 11.1.3 0 2.2-4.5 4.3-9.9 3.6-9.6 3.8-9.9 6-8.9l2.4 1.1-2.1 5.1c-1.1 2.8-3.8 9.7-6 15.3-3.9 10.1-3.9 10.2-6.4 9.1-2.5-1.2-2.6-1.3-2.2-12 .2-5.9 0-10.8-.4-10.8-.5 0-.8.4-.8.9 0 1.8-6.2 18.1-6.8 18.1-.4 0-1.3-.4-2.1-.9-1.1-.7-.5-3.6 3.4-15.2 2.6-7.9 5-14.7 5.2-15.2.6-1 2.1-.9 4.2.2zm-298.2 3.3c2 2.3 8.3 19.7 8.3 23 0 .9-1.1 2.9-2.4 4.4-2.6 3.1-8.2 3.8-11 1.5-1.6-1.3-9.6-21.1-9.6-23.7 0-.9 1.3-2.9 2.9-4.5 3.7-3.7 8.8-4 11.8-.7zm-21.6 7.7c2.4 2 2.4 2 .4 3.5-1.7 1.2-2.2 1.3-3.6 0-2-1.8-3.3-1.8-4.9.1-2.5 3 .2 6 7.9 9 7.6 2.9 10.1 5.3 10.1 9.8 0 4.2-1.6 6.4-5.3 7.6-3.8 1.3-7.4.4-9.7-2.4-1.3-1.5-1.2-1.9.5-3.1 1.3-.9 2.1-1.1 2.3-.4.2.6 1.3 1.5 2.4 2.1 4.4 2.3 6.8-4.8 2.6-7.5-1.3-.8-4.2-1.9-6.4-2.5-5.5-1.5-9.1-4.4-9.9-8.2-1.6-7.2 7.8-12.7 13.6-8zm347.3-.5c4.4 1.8 6.5 6.6 4.5 10.6-1.2 2.3-1.8 2.6-3.6 1.9-2-.7-2.1-1.2-1.3-3.5 1.3-3.2-.3-5.6-3.4-5.2-1.6.2-3 2.5-5.8 8.8-4.2 9.5-4.5 13.3-1.1 13.8 1.7.3 2.7-.6 4.3-3.8 1.7-3.3 1.8-4.1.6-4.6-1.5-.6-1-4.4.6-4.4 1 0 6.8 2.9 6.8 3.4 0 1.8-5.6 11.9-7.3 13.1-4.1 2.9-9.8 1.1-11.8-3.8-1.1-2.5-1-3.8.5-7.8 3.7-10.6 7.5-17.9 9.8-18.9 3.1-1.2 3.4-1.2 7.2.4z"/><path d="M241.7 369.6c-1.2 7.2-.9 9.4 1.4 9.4 1.9 0 2-.4 1.3-4.8-1.1-7.8-2-9.2-2.7-4.6zM285.7 371.6c-.4 4.2-.7 9.7-.7 12.1 0 3.9.2 4.3 2.5 4.3 3.5 0 4.3-2.4 4.7-13.6l.3-9.9-3.1-.3-3.1-.3-.6 7.7zM173 371.7c0 1 .3 3.5.6 5.5.5 3.1 1.1 3.8 2.9 3.8 3.5 0 4.9-2.3 3.8-6.7-.8-3.3-1.3-3.8-4.1-4.1-2.5-.3-3.2 0-3.2 1.5zM352.3 382.9c-2.3 6.2-2.1 7.1.9 7.1 1.6 0 1.8-.9 1.8-6.5 0-3.6-.1-6.5-.3-6.5-.2 0-1.3 2.7-2.4 5.9zM143.4 383.2c.3 1.3.6 4 .6 6 0 3.4.3 3.8 2.5 3.8 1.4 0 2.5-.2 2.5-.5 0-.2-1.1-2.9-2.4-6-2.5-5.5-4.4-7.4-3.2-3.3zM373.9 383.2c-.6 2.4-1.3 4.6-1.6 5-.2.5.7 1.3 2.1 1.9 3.3 1.5 5.3 0 6.2-4.9.5-2.8.3-3.8-1.1-4.9-3.1-2.2-4.4-1.5-5.6 2.9zM100.8 390.1c-1 .5-1.8 1.5-1.8 2.1 0 1.6 6.1 18 7.3 19.5 1.3 1.8 4.6 1.6 5.4-.3.6-1.7-4-16.3-6.4-20.2-1.5-2.5-2-2.6-4.5-1.1zM228.5 402.6c-57.6 5.7-106 20.3-151.3 45.8-9.5 5.3-10.2 5.9-10.2 8.8 0 3 0 3 2.4 1.4 6.3-4.1 25.9-14.3 36.7-19.2 34.1-15.3 68.2-24.9 106.5-30.1 16.5-2.2 67.3-2.5 83.9-.5 51.7 6.4 103 23.4 143.6 47.8 3.1 1.9 5.9 3.4 6.1 3.4.3 0 .3-1.4 0-3-.4-2.6-1.7-3.7-10.5-8.7C396 426 349.8 410.9 302 404.4c-11.9-1.6-63-2.8-73.5-1.8z"/><path d="M267 416.8c-2.9 2.9-3 3.3-3 12.2 0 12.1 2 16 8.1 16 3.3 0 6.9-4.4 6.9-8.5 0-3-.3-3.5-2.4-3.5s-2.5.6-2.8 3.2c-.2 2.5-.8 3.3-2.3 3.3-1.9 0-2-.7-2-10s.1-10 2-10c1.4 0 2.1.8 2.3 2.7.3 2.2.9 2.8 2.8 2.8 2 0 2.4-.5 2.4-2.9 0-3.6-2.6-6.8-6.2-7.7-2.2-.5-3.3 0-5.8 2.4zM234.2 429.7l.3 14.8h6c5.5 0 6-.2 6.3-2.3.3-2-.1-2.2-3.7-2.2H239v-25h-5.1l.3 14.7zM249.2 429.7l.3 14.8h6c5.5 0 6-.2 6.3-2.3.3-2-.1-2.2-3.7-2.2H254v-25h-5.1l.3 14.7zM215.9 422.3c-.8 1.8-2.3 3-4.1 3.4-3.3.6-3.5 1.4-1 3.6 1.3 1.2 1.7 2.6 1.4 4.9-.4 2.8-.3 3 1.4 2.3 1.1-.5 2.8-.8 3.9-.8s2.8.3 3.9.8c1.7.7 1.8.5 1.4-2.3-.3-2.3.1-3.7 1.4-4.9 2.3-2.1 2.3-3.3-.2-3.3-1.9 0-2.9-.8-5.4-4.5-1.4-1.9-1.5-1.9-2.7.8zM295.9 422.3c-.8 1.8-2.3 3-4.1 3.4-3.3.6-3.5 1.4-1 3.6 1.3 1.2 1.7 2.6 1.4 4.9-.4 2.8-.3 3 1.4 2.3 1.1-.5 2.8-.8 3.9-.8s2.8.3 3.9.8c1.7.7 1.8.5 1.4-2.3-.3-2.3.1-3.7 1.4-4.9 2.3-2.1 2.3-3.3-.2-3.3-1.9 0-2.9-.8-5.4-4.5-1.4-1.9-1.5-1.9-2.7.8z"/></svg>